<svg width="500" height="650" viewBox="0 0 500 650" fill="none" xmlns="http://www.w3.org/2000/svg">
<rect width="500" height="650" rx="30" fill="url(#paint0_linear_259_43)"/>
<path d="M100 290C100 207.157 167.157 140 250 140C332.843 140 400 207.157 400 290C400 372.843 332.843 440 250 440C167.157 440 100 372.843 100 290Z" fill="white" fill-opacity="0.3"/>
<path d="M135 290C135 226.487 186.487 175 250 175C313.513 175 365 226.487 365 290C365 353.513 313.513 405 250 405C186.487 405 135 353.513 135 290Z" fill="white" fill-opacity="0.3"/>
<path d="M175 186C175 144.579 208.579 111 250 111C291.421 111 325 144.579 325 186C325 227.421 291.421 261 250 261C208.579 261 175 227.421 175 186Z" fill="white"/>
<path d="M163.9 439.94L152.8 440V399.5H168.34C180.34 399.5 187.36 405.2 187.36 414.62C187.36 424.34 180.7 430.1 168.94 430.1H163.9V439.94ZM168.64 409.7H163.9V419.9H168.64C173.62 419.9 175.96 418.04 175.96 414.62C175.96 411.44 173.44 409.7 168.64 409.7ZM204.62 440H193.64V399.5H210.62C220.22 399.5 227.54 404 227.54 412.94C227.54 418.28 224.54 422.66 219.8 424.16C221.84 425.48 223.16 427.82 224.96 431.48L229.1 440H217.04L213.26 432.38C211.88 429.62 210.32 428.6 206.72 428.6H204.68L204.62 440ZM210.74 409.7H204.74L204.68 418.76H210.62C213.86 418.76 216.14 416.96 216.14 414.08C216.14 411.02 213.86 409.7 210.74 409.7ZM236.296 399.5H247.396V440H236.296V399.5ZM270.84 440.96C263.16 440.96 257.16 437.78 254.4 431.78L263.64 427.16C264.78 429.62 267.06 430.76 270.84 430.76C273.78 430.76 276 429.86 276 427.94C276 425.54 273.6 425.18 269.94 424.64C263.88 423.74 255 421.4 255 411.74C255 404.3 261.66 398.6 270.66 398.6C277.74 398.6 283.74 401.78 286.5 407.78L277.26 412.4C276.12 410.42 273.96 408.8 270.18 408.8C267.54 408.8 266.1 409.64 266.1 411.32C266.1 413.6 268.74 414.32 272.7 414.92C278.7 415.82 287.1 418.1 287.1 427.82C287.1 435.26 279.84 440.96 270.84 440.96ZM303.067 440H291.787L297.127 405.98C297.907 401.18 301.267 398.6 306.127 398.6C310.327 398.6 313.867 400.4 315.007 404.9L320.527 426.38L325.987 405.08C327.127 400.58 330.787 398.6 335.107 398.6C339.847 398.6 343.087 401.24 343.807 406.16L348.607 440H337.387L334.147 411.44L327.727 434.84C326.707 438.44 323.887 440.18 320.527 440.18C317.227 440.18 314.227 438.5 313.327 435.08L306.967 411.38L303.067 440Z" fill="white"/>
<path d="M170.12 467.55H172.71V477H170.12V467.55ZM178.32 472.24C177.396 472.24 177.046 472.982 177.046 473.864V477H174.526V473.556C174.526 471.498 175.73 469.79 178.32 469.79C180.91 469.79 182.114 471.498 182.114 473.556V477H179.594V473.864C179.594 472.982 179.244 472.24 178.32 472.24ZM187.079 477.196C184.895 477.224 183.229 475.516 183.229 473.486C183.229 471.456 184.895 469.762 187.079 469.79C188.479 469.804 189.767 470.434 190.411 471.876L188.325 472.996C188.101 472.52 187.653 472.156 187.079 472.156C186.281 472.156 185.749 472.744 185.749 473.486C185.749 474.228 186.281 474.83 187.079 474.83C187.653 474.83 188.101 474.466 188.325 473.99L190.411 475.11C189.767 476.552 188.479 477.182 187.079 477.196ZM191.677 466.78H194.197V477H191.677V466.78ZM199.424 474.76C200.236 474.76 200.586 474.018 200.586 473.136V470H203.106V473.444C203.106 475.502 201.902 477.21 199.424 477.21C196.946 477.21 195.742 475.502 195.742 473.444V470H198.262V473.136C198.262 474.018 198.612 474.76 199.424 474.76ZM207.298 477.224C205.716 477.224 204.694 476.678 204.092 475.614L205.912 474.592C206.164 475.04 206.542 475.264 207.172 475.264C207.69 475.264 207.928 475.082 207.928 474.858C207.928 474.004 204.232 474.872 204.232 472.156C204.232 470.84 205.352 469.776 207.256 469.776C208.922 469.776 209.832 470.588 210.238 471.372L208.418 472.408C208.264 471.988 207.788 471.736 207.312 471.736C206.948 471.736 206.752 471.89 206.752 472.1C206.752 472.968 210.448 472.17 210.448 474.802C210.448 476.272 209.006 477.224 207.298 477.224ZM213.103 469.258C212.277 469.258 211.591 468.572 211.591 467.746C211.591 466.92 212.277 466.234 213.103 466.234C213.929 466.234 214.615 466.92 214.615 467.746C214.615 468.572 213.929 469.258 213.103 469.258ZM211.843 470H214.363V477H211.843V470ZM217.378 475.628L215.348 470H218.036L219.52 474.382L221.004 470H223.692L221.62 475.628C221.228 476.692 220.528 477.224 219.52 477.224C218.512 477.224 217.77 476.692 217.378 475.628ZM227.891 477.196C225.651 477.196 223.971 475.712 223.971 473.416C223.971 471.4 225.483 469.72 227.695 469.72C229.991 469.72 231.265 471.428 231.265 473.304V473.934H226.393C226.561 474.634 227.093 475.054 227.863 475.054C228.535 475.054 229.067 474.69 229.319 474.144L231.251 475.11C230.649 476.412 229.459 477.196 227.891 477.196ZM226.505 472.632H228.759C228.647 472.24 228.255 471.876 227.667 471.876C227.065 471.876 226.659 472.226 226.505 472.632ZM234.405 479.702H232.781L233.131 476.86C232.767 476.58 232.529 476.146 232.529 475.656C232.529 474.83 233.215 474.144 234.041 474.144C234.867 474.144 235.553 474.83 235.553 475.656C235.553 475.796 235.539 475.936 235.497 476.062L234.405 479.702ZM244.817 477.224C243.025 477.224 241.625 476.482 240.981 475.082L243.137 474.004C243.403 474.578 243.935 474.844 244.817 474.844C245.503 474.844 246.021 474.634 246.021 474.186C246.021 473.626 245.461 473.542 244.607 473.416C243.193 473.206 241.121 472.66 241.121 470.406C241.121 468.67 242.675 467.34 244.775 467.34C246.427 467.34 247.827 468.082 248.471 469.482L246.315 470.56C246.049 470.098 245.545 469.72 244.663 469.72C244.047 469.72 243.711 469.916 243.711 470.308C243.711 470.84 244.327 471.008 245.251 471.148C246.651 471.358 248.611 471.89 248.611 474.158C248.611 475.894 246.917 477.224 244.817 477.224ZM252.995 477.21C250.951 477.21 249.565 475.53 249.565 473.486C249.565 471.456 251.231 469.776 253.415 469.776C255.655 469.776 257.265 471.344 257.265 473.486V477H254.885V476.482C254.437 476.944 253.807 477.21 252.995 477.21ZM253.415 474.844C254.213 474.844 254.745 474.228 254.745 473.5C254.745 472.758 254.213 472.142 253.415 472.142C252.617 472.142 252.085 472.758 252.085 473.5C252.085 474.228 252.617 474.844 253.415 474.844ZM261.953 477H259.433V472.1H258.243V470H259.433V469.958C259.433 468.096 260.497 466.612 262.779 466.612C263.255 466.612 263.773 466.696 264.123 466.85V469.132C263.787 468.95 263.367 468.852 263.017 468.852C262.359 468.852 261.953 469.23 261.953 469.902V470H263.969V472.1H261.953V477ZM268.469 477.196C266.229 477.196 264.549 475.712 264.549 473.416C264.549 471.4 266.061 469.72 268.273 469.72C270.569 469.72 271.843 471.428 271.843 473.304V473.934H266.971C267.139 474.634 267.671 475.054 268.441 475.054C269.113 475.054 269.645 474.69 269.897 474.144L271.829 475.11C271.227 476.412 270.037 477.196 268.469 477.196ZM267.083 472.632H269.337C269.225 472.24 268.833 471.876 268.245 471.876C267.643 471.876 267.237 472.226 267.083 472.632ZM274.983 479.702H273.359L273.709 476.86C273.345 476.58 273.107 476.146 273.107 475.656C273.107 474.83 273.793 474.144 274.619 474.144C275.445 474.144 276.131 474.83 276.131 475.656C276.131 475.796 276.117 475.936 276.075 476.062L274.983 479.702ZM286.249 477.168C283.281 477.168 281.951 475.53 281.951 472.73V467.55H284.541V472.66C284.541 474.116 285.101 474.718 286.249 474.718C287.411 474.718 287.971 474.116 287.971 472.66V467.55H290.561V472.73C290.561 475.53 289.203 477.168 286.249 477.168ZM295.967 472.24C295.043 472.24 294.693 472.982 294.693 473.864V477H292.173V473.556C292.173 471.498 293.377 469.79 295.967 469.79C298.557 469.79 299.761 471.498 299.761 473.556V477H297.241V473.864C297.241 472.982 296.891 472.24 295.967 472.24ZM302.695 469.258C301.869 469.258 301.183 468.572 301.183 467.746C301.183 466.92 301.869 466.234 302.695 466.234C303.521 466.234 304.207 466.92 304.207 467.746C304.207 468.572 303.521 469.258 302.695 469.258ZM301.435 470H303.955V477H301.435V470ZM313.059 480.22H310.539V476.818C310.105 477.056 309.587 477.21 309.069 477.21C306.843 477.21 305.359 475.726 305.359 473.486C305.359 471.456 307.025 469.79 309.209 469.79C311.449 469.79 313.059 471.344 313.059 473.486V480.22ZM309.209 474.844C310.007 474.844 310.539 474.228 310.539 473.5C310.539 472.758 310.007 472.156 309.209 472.156C308.411 472.156 307.879 472.758 307.879 473.5C307.879 474.228 308.411 474.844 309.209 474.844ZM318 474.76C318.812 474.76 319.162 474.018 319.162 473.136V470H321.682V473.444C321.682 475.502 320.478 477.21 318 477.21C315.522 477.21 314.318 475.502 314.318 473.444V470H316.838V473.136C316.838 474.018 317.188 474.76 318 474.76ZM326.588 477.196C324.348 477.196 322.668 475.712 322.668 473.416C322.668 471.4 324.18 469.72 326.392 469.72C328.688 469.72 329.962 471.428 329.962 473.304V473.934H325.09C325.258 474.634 325.79 475.054 326.56 475.054C327.232 475.054 327.764 474.69 328.016 474.144L329.948 475.11C329.346 476.412 328.156 477.196 326.588 477.196ZM325.202 472.632H327.456C327.344 472.24 326.952 471.876 326.364 471.876C325.762 471.876 325.356 472.226 325.202 472.632Z" fill="white"/>
<path d="M161.56 475.24C160.38 475.24 159.4 474.26 159.4 473.08C159.4 471.9 160.38 470.92 161.56 470.92C162.74 470.92 163.72 471.9 163.72 473.08C163.72 474.26 162.74 475.24 161.56 475.24Z" fill="white"/>
<path d="M337.56 475.24C336.38 475.24 335.4 474.26 335.4 473.08C335.4 471.9 336.38 470.92 337.56 470.92C338.74 470.92 339.72 471.9 339.72 473.08C339.72 474.26 338.74 475.24 337.56 475.24Z" fill="white"/>
<path d="M220 176.533C220 173.198 221.013 169.941 222.904 167.193C224.796 164.445 227.478 162.334 230.595 161.141C233.712 159.947 237.118 159.726 240.364 160.507C243.61 161.288 246.542 163.034 248.773 165.515C248.93 165.683 249.12 165.817 249.331 165.909C249.542 166 249.77 166.047 250 166.047C250.23 166.047 250.458 166 250.669 165.909C250.88 165.817 251.07 165.683 251.227 165.515C253.451 163.018 256.384 161.257 259.635 160.467C262.886 159.676 266.3 159.894 269.424 161.09C272.549 162.286 275.234 164.405 277.123 167.163C279.012 169.922 280.016 173.19 280 176.533C280 183.397 275.5 188.522 271 193.018L254.524 208.942C253.965 209.583 253.276 210.099 252.502 210.453C251.728 210.808 250.888 210.994 250.037 211C249.186 211.005 248.343 210.83 247.565 210.485C246.787 210.14 246.091 209.633 245.524 208.999L229 193.018C224.5 188.522 220 183.427 220 176.533Z" fill="#EC4899" stroke="#EC4899" stroke-width="2" stroke-linecap="round" stroke-linejoin="round"/>
<path d="M161.56 475.24C160.38 475.24 159.4 474.26 159.4 473.08C159.4 471.9 160.38 470.92 161.56 470.92C162.74 470.92 163.72 471.9 163.72 473.08C163.72 474.26 162.74 475.24 161.56 475.24Z" fill="white"/>
<defs>
<linearGradient id="paint0_linear_259_43" x1="-42" y1="-45.5" x2="484.5" y2="643" gradientUnits="userSpaceOnUse">
<stop stop-color="#EC4899"/>
<stop offset="0.5" stop-color="#A855F7"/>
<stop offset="1" stop-color="#6366F1"/>
</linearGradient>
</defs>
</svg>
